<svg xmlns="http://www.w3.org/2000/svg" width="840" height="520" viewBox="0 0 840 520"
 font-family="'Segoe UI','Microsoft YaHei',sans-serif">
<defs>
    <pattern id="hatch" width="9" height="9" patternUnits="userSpaceOnUse" patternTransform="rotate(45)">
      <line x1="0" y1="0" x2="0" y2="9" stroke="#b9c6d6" stroke-width="1.7"/>
    </pattern>
    <marker id="ah-red" viewBox="0 0 10 10" refX="8" refY="5" markerWidth="5" markerHeight="5" orient="auto-start-reverse"><path d="M0,0 L10,5 L0,10 Z" fill="#dc2626"/></marker>
<marker id="ah-blue" viewBox="0 0 10 10" refX="8" refY="5" markerWidth="5" markerHeight="5" orient="auto-start-reverse"><path d="M0,0 L10,5 L0,10 Z" fill="#2563eb"/></marker>
<marker id="ah-ink" viewBox="0 0 10 10" refX="8" refY="5" markerWidth="5" markerHeight="5" orient="auto-start-reverse"><path d="M0,0 L10,5 L0,10 Z" fill="#111827"/></marker>
  </defs>
<line x1="409.63" y1="501.99" x2="409.63" y2="18.01" stroke="none" stroke-width="0.02" stroke-linecap="round" opacity="0"/>
<line x1="405.15" y1="376.51" x2="378.26" y2="457.18" stroke="#111827" stroke-width="15.68" stroke-linecap="round"/>
<circle cx="378.26" cy="457.18" r="10.31" fill="#111827" stroke-width="0"/>
<line x1="405.15" y1="376.51" x2="432.04" y2="376.51" stroke="#111827" stroke-width="20.17" stroke-linecap="round"/>
<line x1="418.6" y1="376.51" x2="407.35" y2="269.55" stroke="#111827" stroke-width="22.41" stroke-linecap="round"/>
<line x1="396.15" y1="269.55" x2="418.56" y2="269.55" stroke="#111827" stroke-width="20.17" stroke-linecap="round"/>
<line x1="418.56" y1="269.55" x2="407.7" y2="176.36" stroke="#111827" stroke-width="20.17" stroke-linecap="round"/>
<line x1="407.7" y1="176.36" x2="398.18" y2="96.92" stroke="#111827" stroke-width="20.17" stroke-linecap="round"/>
<path d="M386.04,99.06 L393.51,70.44 L408.1,95.17 Z" fill="#111827" stroke="none" stroke-width="17.93" stroke-linejoin="round" stroke-linecap="round"/>
<line x1="396.15" y1="269.55" x2="380.81" y2="176.36" stroke="#111827" stroke-width="20.17" stroke-linecap="round"/>
<line x1="380.81" y1="176.36" x2="362.32" y2="96.92" stroke="#111827" stroke-width="20.17" stroke-linecap="round"/>
<path d="M350.19,99.06 L357.66,70.44 L372.25,95.17 Z" fill="#111827" stroke="none" stroke-width="17.93" stroke-linejoin="round" stroke-linecap="round"/>
<circle cx="407.35" cy="269.55" r="7.17" fill="#111827" stroke-width="0"/>
<circle cx="407.7" cy="176.36" r="6.72" fill="#111827" stroke-width="0"/>
<circle cx="380.81" cy="176.36" r="6.72" fill="#111827" stroke-width="0"/>
<line x1="418.6" y1="376.51" x2="422.38" y2="408.06" stroke="#111827" stroke-width="17.93" stroke-linecap="round"/>
<circle cx="425.32" cy="432.53" r="24.65" fill="#ffffff" stroke="#111827" stroke-width="12.32"/>
<line x1="432.04" y1="376.51" x2="490.93" y2="408.92" stroke="#111827" stroke-width="15.68" stroke-linecap="round"/>
<line x1="490.93" y1="408.92" x2="454.45" y2="457.18" stroke="#111827" stroke-width="15.68" stroke-linecap="round"/>
<circle cx="490.93" cy="408.92" r="6.72" fill="#111827" stroke-width="0"/>
<circle cx="454.45" cy="457.18" r="10.31" fill="#111827" stroke-width="0"/>
<line x1="323.3" y1="470.62" x2="516.7" y2="470.62" stroke="#94a3b8" stroke-width="4.03" stroke-linecap="round"/>
<line x1="499.26" y1="432.53" x2="461.17" y2="454.94" stroke="#2563eb" stroke-width="3.59" stroke-linecap="butt" stroke-dasharray="4 3"/>
<text x="503.74" y="423.57" font-size="20.17" fill="#2563eb" text-anchor="start" font-weight="400">重心</text>
</svg>