<svg xmlns="http://www.w3.org/2000/svg" width="840" height="520" viewBox="0 0 840 520"
 font-family="'Segoe UI','Microsoft YaHei',sans-serif">
<defs>
    <pattern id="hatch" width="9" height="9" patternUnits="userSpaceOnUse" patternTransform="rotate(45)">
      <line x1="0" y1="0" x2="0" y2="9" stroke="#b9c6d6" stroke-width="1.7"/>
    </pattern>
    <marker id="ah-red" viewBox="0 0 10 10" refX="8" refY="5" markerWidth="5" markerHeight="5" orient="auto-start-reverse"><path d="M0,0 L10,5 L0,10 Z" fill="#dc2626"/></marker>
<marker id="ah-blue" viewBox="0 0 10 10" refX="8" refY="5" markerWidth="5" markerHeight="5" orient="auto-start-reverse"><path d="M0,0 L10,5 L0,10 Z" fill="#2563eb"/></marker>
<marker id="ah-ink" viewBox="0 0 10 10" refX="8" refY="5" markerWidth="5" markerHeight="5" orient="auto-start-reverse"><path d="M0,0 L10,5 L0,10 Z" fill="#111827"/></marker>
  </defs>
<line x1="266.71" y1="93.23" x2="573.29" y2="93.23" stroke="#334155" stroke-width="17.03" stroke-linecap="round"/>
<line x1="280.9" y1="93.23" x2="280.9" y2="25.1" stroke="#334155" stroke-width="14.19" stroke-linecap="round"/>
<line x1="559.1" y1="93.23" x2="559.1" y2="25.1" stroke="#334155" stroke-width="14.19" stroke-linecap="round"/>
<line x1="368.9" y1="255.03" x2="363.23" y2="93.23" stroke="#111827" stroke-width="19.87" stroke-linecap="round"/>
<circle cx="363.23" cy="93.23" r="13.06" fill="#111827" stroke-width="0"/>
<line x1="471.1" y1="255.03" x2="476.77" y2="93.23" stroke="#111827" stroke-width="19.87" stroke-linecap="round"/>
<circle cx="476.77" cy="93.23" r="13.06" fill="#111827" stroke-width="0"/>
<path d="M363.23,260.71 L476.77,260.71 L465.42,391.29 L374.58,391.29 Z" fill="#eef2f7" stroke="#111827" stroke-width="11.35" stroke-linejoin="round" stroke-linecap="round"/>
<line x1="366.06" y1="260.71" x2="473.94" y2="260.71" stroke="#111827" stroke-width="19.87" stroke-linecap="round"/>
<line x1="374.58" y1="391.29" x2="255.35" y2="360.06" stroke="#111827" stroke-width="25.55" stroke-linecap="round"/>
<line x1="255.35" y1="360.06" x2="334.84" y2="453.74" stroke="#111827" stroke-width="25.55" stroke-linecap="round"/>
<line x1="465.42" y1="391.29" x2="584.65" y2="360.06" stroke="#111827" stroke-width="25.55" stroke-linecap="round"/>
<line x1="584.65" y1="360.06" x2="505.16" y2="453.74" stroke="#111827" stroke-width="25.55" stroke-linecap="round"/>
<circle cx="374.58" cy="391.29" r="9.08" fill="#111827" stroke-width="0"/>
<circle cx="465.42" cy="391.29" r="9.08" fill="#111827" stroke-width="0"/>
<circle cx="255.35" cy="360.06" r="9.08" fill="#111827" stroke-width="0"/>
<circle cx="584.65" cy="360.06" r="9.08" fill="#111827" stroke-width="0"/>
<path d="M326.32,431.03 L326.32,462.26 L334.84,490.65 L334.84,428.19 Z" fill="#111827" stroke="none" stroke-width="22.71" stroke-linejoin="round" stroke-linecap="round"/>
<path d="M496.65,431.03 L496.65,462.26 L505.16,490.65 L505.16,428.19 Z" fill="#111827" stroke="none" stroke-width="22.71" stroke-linejoin="round" stroke-linecap="round"/>
<line x1="420" y1="252.19" x2="420" y2="220.97" stroke="#111827" stroke-width="22.71" stroke-linecap="round"/>
<circle cx="420" cy="186.9" r="34.06" fill="#ffffff" stroke="#111827" stroke-width="15.61"/>
</svg>