<svg xmlns="http://www.w3.org/2000/svg" width="840" height="520" viewBox="0 0 840 520"
 font-family="'Segoe UI','Microsoft YaHei',sans-serif">
<defs>
    <pattern id="hatch" width="9" height="9" patternUnits="userSpaceOnUse" patternTransform="rotate(45)">
      <line x1="0" y1="0" x2="0" y2="9" stroke="#b9c6d6" stroke-width="1.7"/>
    </pattern>
    <marker id="ah-red" viewBox="0 0 10 10" refX="8" refY="5" markerWidth="5" markerHeight="5" orient="auto-start-reverse"><path d="M0,0 L10,5 L0,10 Z" fill="#dc2626"/></marker>
<marker id="ah-blue" viewBox="0 0 10 10" refX="8" refY="5" markerWidth="5" markerHeight="5" orient="auto-start-reverse"><path d="M0,0 L10,5 L0,10 Z" fill="#2563eb"/></marker>
<marker id="ah-ink" viewBox="0 0 10 10" refX="8" refY="5" markerWidth="5" markerHeight="5" orient="auto-start-reverse"><path d="M0,0 L10,5 L0,10 Z" fill="#111827"/></marker>
  </defs>
<path d="M668.77,449.96 L726.01,449.96 L778.06,481.18 L663.56,481.18 Z" fill="#111827" stroke="none" stroke-width="41.63" stroke-linejoin="round" stroke-linecap="round"/>
<line x1="710.4" y1="434.34" x2="575.09" y2="231.38" stroke="#111827" stroke-width="46.84" stroke-linecap="round"/>
<line x1="575.09" y1="231.38" x2="450.18" y2="44.02" stroke="#111827" stroke-width="52.04" stroke-linecap="round"/>
<circle cx="575.09" cy="231.38" r="16.65" fill="#111827" stroke-width="0"/>
<circle cx="450.18" cy="44.02" r="16.65" fill="#111827" stroke-width="0"/>
<path d="M450.18,44.02 C377.32,106.47 283.65,210.56 242.01,340.67" fill="none" stroke="#111827" stroke-width="52.04" stroke-linecap="round"/>
<line x1="242.01" y1="340.67" x2="87.77" y2="316.49" stroke="#111827" stroke-width="36.43" stroke-linecap="round"/>
<line x1="87.77" y1="316.49" x2="65.07" y2="455.16" stroke="#111827" stroke-width="36.43" stroke-linecap="round"/>
<circle cx="87.77" cy="316.49" r="15.61" fill="#111827" stroke-width="0"/>
<circle cx="65.07" cy="455.16" r="23.94" fill="#111827" stroke-width="0"/>
<line x1="242.01" y1="340.67" x2="211.19" y2="327.18" stroke="#111827" stroke-width="41.63" stroke-linecap="round"/>
<circle cx="158.74" cy="304.24" r="57.25" fill="#ffffff" stroke="#111827" stroke-width="28.62"/>
<line x1="-0.51" y1="481.18" x2="840.51" y2="481.18" stroke="#94a3b8" stroke-width="9.37" stroke-linecap="round"/>
</svg>