<svg xmlns="http://www.w3.org/2000/svg" width="840" height="520" viewBox="0 0 840 520"
 font-family="'Segoe UI','Microsoft YaHei',sans-serif">
<defs>
    <pattern id="hatch" width="9" height="9" patternUnits="userSpaceOnUse" patternTransform="rotate(45)">
      <line x1="0" y1="0" x2="0" y2="9" stroke="#b9c6d6" stroke-width="1.7"/>
    </pattern>
    <marker id="ah-red" viewBox="0 0 10 10" refX="8" refY="5" markerWidth="5" markerHeight="5" orient="auto-start-reverse"><path d="M0,0 L10,5 L0,10 Z" fill="#dc2626"/></marker>
<marker id="ah-blue" viewBox="0 0 10 10" refX="8" refY="5" markerWidth="5" markerHeight="5" orient="auto-start-reverse"><path d="M0,0 L10,5 L0,10 Z" fill="#2563eb"/></marker>
<marker id="ah-ink" viewBox="0 0 10 10" refX="8" refY="5" markerWidth="5" markerHeight="5" orient="auto-start-reverse"><path d="M0,0 L10,5 L0,10 Z" fill="#111827"/></marker>
  </defs>
<path d="M353.78,142.62 L475.5,142.62 L461.01,264.35 L368.27,264.35 Z" fill="#eef2f7" stroke="#111827" stroke-width="11.59" stroke-linejoin="round" stroke-linecap="round"/>
<line x1="368.27" y1="264.35" x2="362.47" y2="444.04" stroke="#111827" stroke-width="26.08" stroke-linecap="round"/>
<line x1="461.01" y1="264.35" x2="466.81" y2="444.04" stroke="#111827" stroke-width="26.08" stroke-linecap="round"/>
<line x1="342.18" y1="444.04" x2="382.76" y2="444.04" stroke="#111827" stroke-width="17.39" stroke-linecap="round"/>
<line x1="446.52" y1="444.04" x2="487.09" y2="444.04" stroke="#111827" stroke-width="17.39" stroke-linecap="round"/>
<line x1="353.78" y1="142.62" x2="319" y2="165.81" stroke="#111827" stroke-width="20.29" stroke-linecap="round"/>
<line x1="319" y1="165.81" x2="345.08" y2="200.59" stroke="#111827" stroke-width="20.29" stroke-linecap="round"/>
<circle cx="319" cy="165.81" r="8.69" fill="#111827" stroke-width="0"/>
<circle cx="345.08" cy="200.59" r="9.85" fill="#ffffff" stroke="#111827" stroke-width="6.38"/>
<line x1="350.66" y1="193.69" x2="361.31" y2="180.54" stroke="#111827" stroke-width="6.38" stroke-linecap="round"/>
<line x1="347.08" y1="191.95" x2="350.88" y2="175.45" stroke="#111827" stroke-width="6.38" stroke-linecap="round"/>
<line x1="343.09" y1="191.95" x2="339.28" y2="175.45" stroke="#111827" stroke-width="6.38" stroke-linecap="round"/>
<line x1="339.5" y1="193.69" x2="328.85" y2="180.54" stroke="#111827" stroke-width="6.38" stroke-linecap="round"/>
<line x1="475.5" y1="142.62" x2="510.28" y2="165.81" stroke="#111827" stroke-width="20.29" stroke-linecap="round"/>
<line x1="510.28" y1="165.81" x2="484.2" y2="177.4" stroke="#111827" stroke-width="20.29" stroke-linecap="round"/>
<circle cx="510.28" cy="165.81" r="8.69" fill="#111827" stroke-width="0"/>
<circle cx="484.2" cy="177.4" r="9.85" fill="#ffffff" stroke="#111827" stroke-width="6.38"/>
<line x1="489.78" y1="170.51" x2="500.43" y2="157.36" stroke="#111827" stroke-width="6.38" stroke-linecap="round"/>
<line x1="486.19" y1="168.76" x2="490" y2="152.27" stroke="#111827" stroke-width="6.38" stroke-linecap="round"/>
<line x1="482.2" y1="168.76" x2="478.39" y2="152.27" stroke="#111827" stroke-width="6.38" stroke-linecap="round"/>
<line x1="478.61" y1="170.51" x2="467.96" y2="157.36" stroke="#111827" stroke-width="6.38" stroke-linecap="round"/>
<circle cx="492.89" cy="177.4" r="34.78" fill="#ffffff" stroke="#2563eb" stroke-width="6.96" stroke-dasharray="6 5"/>
<line x1="400.15" y1="142.62" x2="400.15" y2="131.03" stroke="#111827" stroke-width="23.19" stroke-linecap="round"/>
<circle cx="400.15" cy="96.25" r="34.78" fill="#ffffff" stroke="#111827" stroke-width="15.94"/>
<text x="400.15" y="41.19" font-size="23.19" fill="#94a3b8" text-anchor="middle" font-weight="400">头</text>
<text x="414.64" y="478.81" font-size="23.19" fill="#94a3b8" text-anchor="middle" font-weight="400">脚</text>
</svg>