<svg xmlns="http://www.w3.org/2000/svg" width="840" height="520" viewBox="0 0 840 520"
 font-family="'Segoe UI','Microsoft YaHei',sans-serif">
<defs>
    <pattern id="hatch" width="9" height="9" patternUnits="userSpaceOnUse" patternTransform="rotate(45)">
      <line x1="0" y1="0" x2="0" y2="9" stroke="#b9c6d6" stroke-width="1.7"/>
    </pattern>
    <marker id="ah-red" viewBox="0 0 10 10" refX="8" refY="5" markerWidth="5" markerHeight="5" orient="auto-start-reverse"><path d="M0,0 L10,5 L0,10 Z" fill="#dc2626"/></marker>
<marker id="ah-blue" viewBox="0 0 10 10" refX="8" refY="5" markerWidth="5" markerHeight="5" orient="auto-start-reverse"><path d="M0,0 L10,5 L0,10 Z" fill="#2563eb"/></marker>
<marker id="ah-ink" viewBox="0 0 10 10" refX="8" refY="5" markerWidth="5" markerHeight="5" orient="auto-start-reverse"><path d="M0,0 L10,5 L0,10 Z" fill="#111827"/></marker>
  </defs>
<line x1="402.02" y1="501.99" x2="402.02" y2="18.01" stroke="none" stroke-width="0.02" stroke-linecap="round" opacity="0"/>
<line x1="397.54" y1="385.48" x2="424.42" y2="385.48" stroke="#111827" stroke-width="20.17" stroke-linecap="round"/>
<line x1="410.98" y1="385.48" x2="418.48" y2="278.19" stroke="#111827" stroke-width="22.41" stroke-linecap="round"/>
<line x1="407.28" y1="278.19" x2="429.69" y2="278.19" stroke="#111827" stroke-width="20.17" stroke-linecap="round"/>
<line x1="429.69" y1="278.19" x2="435.21" y2="184.14" stroke="#111827" stroke-width="20.17" stroke-linecap="round"/>
<line x1="435.21" y1="184.14" x2="443.91" y2="103.59" stroke="#111827" stroke-width="20.17" stroke-linecap="round"/>
<path d="M431.61,102.94 L445.32,76.73 L453.98,104.11 Z" fill="#111827" stroke="none" stroke-width="17.93" stroke-linejoin="round" stroke-linecap="round"/>
<line x1="407.28" y1="278.19" x2="408.32" y2="184.14" stroke="#111827" stroke-width="20.17" stroke-linecap="round"/>
<line x1="408.32" y1="184.14" x2="408.06" y2="103.59" stroke="#111827" stroke-width="20.17" stroke-linecap="round"/>
<path d="M395.76,102.94 L409.47,76.73 L418.13,104.11 Z" fill="#111827" stroke="none" stroke-width="17.93" stroke-linejoin="round" stroke-linecap="round"/>
<circle cx="418.48" cy="278.19" r="7.17" fill="#111827" stroke-width="0"/>
<circle cx="435.21" cy="184.14" r="6.72" fill="#111827" stroke-width="0"/>
<circle cx="408.32" cy="184.14" r="6.72" fill="#111827" stroke-width="0"/>
<line x1="410.98" y1="385.48" x2="409.65" y2="421.34" stroke="#111827" stroke-width="17.93" stroke-linecap="round"/>
<circle cx="408.74" cy="445.97" r="24.65" fill="#ffffff" stroke="#111827" stroke-width="12.32"/>
<line x1="397.54" y1="385.48" x2="357.37" y2="331.58" stroke="#111827" stroke-width="15.68" stroke-linecap="round"/>
<line x1="357.37" y1="331.58" x2="402.8" y2="291.63" stroke="#111827" stroke-width="15.68" stroke-linecap="round"/>
<circle cx="357.37" cy="331.58" r="6.72" fill="#111827" stroke-width="0"/>
<circle cx="402.8" cy="291.63" r="10.31" fill="#111827" stroke-width="0"/>
<line x1="424.42" y1="385.48" x2="482.63" y2="419.09" stroke="#111827" stroke-width="15.68" stroke-linecap="round"/>
<line x1="482.63" y1="419.09" x2="435.63" y2="457.18" stroke="#111827" stroke-width="15.68" stroke-linecap="round"/>
<circle cx="482.63" cy="419.09" r="6.72" fill="#111827" stroke-width="0"/>
<circle cx="435.63" cy="457.18" r="10.31" fill="#111827" stroke-width="0"/>
<line x1="331.6" y1="470.62" x2="508.4" y2="470.62" stroke="#94a3b8" stroke-width="4.03" stroke-linecap="round"/>
</svg>