<svg xmlns="http://www.w3.org/2000/svg" width="840" height="520" viewBox="0 0 840 520"
 font-family="'Segoe UI','Microsoft YaHei',sans-serif">
<defs>
    <pattern id="hatch" width="9" height="9" patternUnits="userSpaceOnUse" patternTransform="rotate(45)">
      <line x1="0" y1="0" x2="0" y2="9" stroke="#b9c6d6" stroke-width="1.7"/>
    </pattern>
    <marker id="ah-red" viewBox="0 0 10 10" refX="8" refY="5" markerWidth="5" markerHeight="5" orient="auto-start-reverse"><path d="M0,0 L10,5 L0,10 Z" fill="#dc2626"/></marker>
<marker id="ah-blue" viewBox="0 0 10 10" refX="8" refY="5" markerWidth="5" markerHeight="5" orient="auto-start-reverse"><path d="M0,0 L10,5 L0,10 Z" fill="#2563eb"/></marker>
<marker id="ah-ink" viewBox="0 0 10 10" refX="8" refY="5" markerWidth="5" markerHeight="5" orient="auto-start-reverse"><path d="M0,0 L10,5 L0,10 Z" fill="#111827"/></marker>
  </defs>
<path d="M316.87,152.77 L523.13,152.77 L490.31,349.65 L349.69,349.65 Z" fill="#eef2f7" stroke="#111827" stroke-width="18.75" stroke-linejoin="round" stroke-linecap="round"/>
<line x1="321.56" y1="152.77" x2="518.44" y2="152.77" stroke="#111827" stroke-width="32.81" stroke-linecap="round"/>
<line x1="321.56" y1="162.15" x2="241.87" y2="246.52" stroke="#111827" stroke-width="32.81" stroke-linecap="round"/>
<line x1="241.87" y1="246.52" x2="335.62" y2="293.4" stroke="#111827" stroke-width="32.81" stroke-linecap="round"/>
<circle cx="241.87" cy="246.52" r="13.13" fill="#111827" stroke-width="0"/>
<line x1="518.44" y1="162.15" x2="598.13" y2="246.52" stroke="#111827" stroke-width="32.81" stroke-linecap="round"/>
<line x1="598.13" y1="246.52" x2="504.38" y2="293.4" stroke="#111827" stroke-width="32.81" stroke-linecap="round"/>
<circle cx="598.13" cy="246.52" r="13.13" fill="#111827" stroke-width="0"/>
<circle cx="335.62" cy="293.4" r="20.63" fill="#111827" stroke-width="0"/>
<circle cx="504.38" cy="293.4" r="20.63" fill="#111827" stroke-width="0"/>
<line x1="349.69" y1="349.65" x2="194.99" y2="480.91" stroke="#111827" stroke-width="42.19" stroke-linecap="round"/>
<line x1="194.99" y1="480.91" x2="391.87" y2="405.9" stroke="#111827" stroke-width="42.19" stroke-linecap="round"/>
<line x1="490.31" y1="349.65" x2="645.01" y2="480.91" stroke="#111827" stroke-width="42.19" stroke-linecap="round"/>
<line x1="645.01" y1="480.91" x2="448.13" y2="405.9" stroke="#111827" stroke-width="42.19" stroke-linecap="round"/>
<circle cx="349.69" cy="349.65" r="15" fill="#111827" stroke-width="0"/>
<circle cx="490.31" cy="349.65" r="15" fill="#111827" stroke-width="0"/>
<circle cx="194.99" cy="480.91" r="15" fill="#111827" stroke-width="0"/>
<circle cx="645.01" cy="480.91" r="15" fill="#111827" stroke-width="0"/>
<line x1="380.19" y1="375.24" x2="403.56" y2="436.57" stroke="#111827" stroke-width="28.13" stroke-linecap="round"/>
<line x1="436.44" y1="436.57" x2="459.81" y2="375.24" stroke="#111827" stroke-width="28.13" stroke-linecap="round"/>
<line x1="420" y1="152.77" x2="420" y2="143.39" stroke="#111827" stroke-width="37.5" stroke-linecap="round"/>
<circle cx="420" cy="87.14" r="56.25" fill="#ffffff" stroke="#111827" stroke-width="25.78"/>
</svg>