<svg xmlns="http://www.w3.org/2000/svg" width="840" height="520" viewBox="0 0 840 520"
 font-family="'Segoe UI','Microsoft YaHei',sans-serif">
<defs>
    <pattern id="hatch" width="9" height="9" patternUnits="userSpaceOnUse" patternTransform="rotate(45)">
      <line x1="0" y1="0" x2="0" y2="9" stroke="#b9c6d6" stroke-width="1.7"/>
    </pattern>
    <marker id="ah-red" viewBox="0 0 10 10" refX="8" refY="5" markerWidth="5" markerHeight="5" orient="auto-start-reverse"><path d="M0,0 L10,5 L0,10 Z" fill="#dc2626"/></marker>
<marker id="ah-blue" viewBox="0 0 10 10" refX="8" refY="5" markerWidth="5" markerHeight="5" orient="auto-start-reverse"><path d="M0,0 L10,5 L0,10 Z" fill="#2563eb"/></marker>
<marker id="ah-ink" viewBox="0 0 10 10" refX="8" refY="5" markerWidth="5" markerHeight="5" orient="auto-start-reverse"><path d="M0,0 L10,5 L0,10 Z" fill="#111827"/></marker>
  </defs>
<line x1="280.49" y1="98.37" x2="559.51" y2="98.37" stroke="#334155" stroke-width="18.2" stroke-linecap="round"/>
<line x1="295.65" y1="98.37" x2="295.65" y2="25.58" stroke="#334155" stroke-width="15.16" stroke-linecap="round"/>
<line x1="544.35" y1="98.37" x2="544.35" y2="25.58" stroke="#334155" stroke-width="15.16" stroke-linecap="round"/>
<circle cx="416.97" cy="98.37" r="12.74" fill="#94a3b8" stroke-width="0"/>
<line x1="420" y1="271.24" x2="395.74" y2="98.37" stroke="#111827" stroke-width="21.23" stroke-linecap="round"/>
<circle cx="395.74" cy="98.37" r="13.95" fill="#111827" stroke-width="0"/>
<line x1="420" y1="416.82" x2="420" y2="271.24" stroke="#111827" stroke-width="30.33" stroke-linecap="round"/>
<line x1="420" y1="271.24" x2="438.58" y2="241.83" stroke="#111827" stroke-width="24.26" stroke-linecap="round"/>
<circle cx="456.39" cy="213.62" r="33.36" fill="#ffffff" stroke="#111827" stroke-width="16.68"/>
<line x1="420" y1="416.82" x2="509.29" y2="317.65" stroke="#111827" stroke-width="27.3" stroke-linecap="round"/>
<line x1="509.29" y1="317.65" x2="520.92" y2="450.59" stroke="#111827" stroke-width="27.3" stroke-linecap="round"/>
<circle cx="420" cy="416.82" r="9.71" fill="#111827" stroke-width="0"/>
<circle cx="509.29" cy="317.65" r="9.71" fill="#111827" stroke-width="0"/>
<path d="M509.75,427.21 L512.65,460.45 L524.36,489.87 L518.54,423.4 Z" fill="#111827" stroke="none" stroke-width="24.26" stroke-linejoin="round" stroke-linecap="round"/>
</svg>